<?xml version="1.0" standalone="no"?>
<!DOCTYPE svg PUBLIC "-//W3C//DTD SVG 20010904//EN"
 "http://www.w3.org/TR/2001/REC-SVG-20010904/DTD/svg10.dtd">
<svg version="1.0" xmlns="http://www.w3.org/2000/svg"
 width="96.000000pt" height="96.000000pt" viewBox="0 0 96.000000 96.000000"
 preserveAspectRatio="xMidYMid meet">
<metadata>
Created by potrace 1.14, written by Peter Selinger 2001-2017
</metadata>
<g transform="translate(0.000000,96.000000) scale(0.100000,-0.100000)"
fill="#000000" stroke="none">
<path d="M298 719 l-178 -119 0 -72 c0 -56 3 -69 12 -60 7 7 16 12 20 12 4 0
8 -81 8 -180 l0 -180 320 0 320 0 0 180 c0 99 4 180 8 180 4 0 13 -5 20 -12 9
-9 12 4 12 60 l0 72 -180 120 c-99 66 -181 120 -182 119 -2 0 -83 -54 -180
-120z"/>
</g>
</svg>
